<?xml version="1.0" encoding="UTF-8" standalone="no"?>
<svg width="45px" height="46px" viewBox="0 0 45 46" version="1.1" xmlns="http://www.w3.org/2000/svg" xmlns:xlink="http://www.w3.org/1999/xlink">
    <!-- Generator: Sketch 46.2 (44496) - http://www.bohemiancoding.com/sketch -->
    <title>LinkArrow</title>
    <desc>Created with Sketch.</desc>
    <defs></defs>
    <g id="Home" stroke="none" stroke-width="1" fill="none" fill-rule="evenodd">
        <g transform="translate(-402.000000, -908.000000)" id="Casestudies">
            <g transform="translate(-3.000000, 604.000000)">
                <g id="Casestudy-thumb1">
                    <g id="LinkArrow" transform="translate(405.000000, 304.000000)">
                        <polygon id="Path-2" fill="#EB008B" points="44.8113808 46.011236 44.8113808 0.3669987 0.454266152 45.8649492"></polygon>
                        <path d="M33.4603644,28.3507392 L32.9334628,28.8776408 C32.8087564,29.0023471 32.8087564,29.2045492 32.9334628,29.3292822 L37.0618658,33.4576586 L27.9754937,33.4576586 C27.7991324,33.4576586 27.6561433,33.6006477 27.6561433,33.777009 L27.6561433,34.5221601 C27.6561433,34.6985214 27.7991324,34.8415106 27.9754937,34.8415106 L37.0618658,34.8415106 L32.9334628,38.9699136 C32.8087564,39.0946199 32.8087564,39.296822 32.9334628,39.421555 L33.4603644,39.9484566 C33.5850708,40.0731629 33.7872728,40.0731629 33.9120058,39.9484566 L39.4850438,34.3754186 C39.6097502,34.2507122 39.6097502,34.0485101 39.4850438,33.9237772 L33.9119792,28.3507392 C33.7872728,28.2260062 33.5850708,28.2260062 33.4603644,28.3507392 Z" id="Shape" fill="#FFFFFF" fill-rule="nonzero" transform="translate(33.617358, 34.149588) rotate(-315.000000) translate(-33.617358, -34.149588) "></path>
                    </g>
                </g>
            </g>
        </g>
    </g>
</svg>