<?xml version="1.0" encoding="UTF-8" standalone="no"?>
<svg width="89px" height="91px" viewBox="0 0 89 91" version="1.1" xmlns="http://www.w3.org/2000/svg" xmlns:xlink="http://www.w3.org/1999/xlink">
    <!-- Generator: Sketch 46.2 (44496) - http://www.bohemiancoding.com/sketch -->
    <title>LinkArrow</title>
    <desc>Created with Sketch.</desc>
    <defs></defs>
    <g id="Home" stroke="none" stroke-width="1" fill="none" fill-rule="evenodd">
        <g transform="translate(-811.000000, -510.000000)" id="Hero">
            <g transform="translate(0.000000, 51.000000)">
                <g id="LinkArrow" transform="translate(811.000000, 458.000000)">
                    <polygon id="Path-2" fill="#EB008B" points="89.6227616 92.0224719 89.6227616 0.733997399 0.908532303 91.7298984"></polygon>
                    <path d="M66.9207289,56.7014783 L65.8669256,57.7552816 C65.6175129,58.0046943 65.6175129,58.4090984 65.8669256,58.6585643 L74.1237316,66.9153172 L55.9509875,66.9153172 C55.5982649,66.9153172 55.3122866,67.2012955 55.3122866,67.5540181 L55.3122866,69.0443202 C55.3122866,69.3970428 55.5982649,69.6830211 55.9509875,69.6830211 L74.1237316,69.6830211 L65.8669256,77.9398271 C65.6175129,78.1892398 65.6175129,78.593644 65.8669256,78.8431099 L66.9207289,79.8969132 C67.1701416,80.1463259 67.5745457,80.1463259 67.8240116,79.8969132 L78.9700877,68.7508371 C79.2195004,68.5014244 79.2195004,68.0970203 78.9700877,67.8475544 L67.8239584,56.7014783 C67.5745457,56.4520124 67.1701416,56.4520124 66.9207289,56.7014783 Z" id="Shape" fill="#FFFFFF" fill-rule="nonzero" transform="translate(67.234717, 68.299176) rotate(-315.000000) translate(-67.234717, -68.299176) "></path>
                </g>
            </g>
        </g>
    </g>
</svg>