<?xml version="1.0" encoding="UTF-8" standalone="no"?>
<svg width="260px" height="70px" viewBox="0 0 260 70" version="1.1" xmlns="http://www.w3.org/2000/svg" xmlns:xlink="http://www.w3.org/1999/xlink">
    <!-- Generator: Sketch 46.2 (44496) - http://www.bohemiancoding.com/sketch -->
    <title>white-logo-superdrug</title>
    <desc>Created with Sketch.</desc>
    <defs></defs>
    <g id="Home" stroke="none" stroke-width="1" fill="none" fill-rule="evenodd">
        <g transform="translate(-320.000000, -12.000000)" id="white-logo-superdrug" fill-rule="nonzero" fill="#FFFFFF">
            <g transform="translate(320.000000, 12.000000)">
                <path d="M116.550209,22.0588235 C116.945607,23.7647059 116.889121,27.8823529 119.261506,27.8823529 C122.198745,27.8823529 121.916318,21.2352941 125.757322,21.2352941 C125.926778,21.2352941 126.15272,21.2352941 126.26569,21.2352941 C126.887029,21.2352941 127,20.6470588 127,20 C127,19.1764706 126.830544,19 125.813808,19 C123.046025,19 121.577406,21.3529412 120.504184,23.6470588 C119.82636,25.0588235 119.656904,25.7647059 119.430962,25.7647059 C118.866109,25.7647059 119.205021,19.6470588 116.945607,19.6470588 C114.968619,19.6470588 114.629707,23.2352941 111.410042,25.0588235 C110.223849,25.7058824 108.585774,25.9411765 106.495816,25.9411765 C103.16318,25.9411765 102.372385,25.6470588 102.372385,23.3529412 C102.372385,22.8823529 102.372385,22.3529412 102.654812,21.9411765 C103.219665,21.1176471 105.083682,21.1176471 106.100418,21.1176471 C108.416318,21.1176471 108.698745,21.3529412 108.698745,22.1176471 C108.698745,22.8823529 108.472803,22.9411765 107.004184,23 L106.156904,23 C105.817992,23 105.422594,22.9411765 105.422594,23.6470588 C105.422594,24.2352941 105.422594,24.5294118 105.761506,24.5882353 C105.930962,24.6470588 106.552301,24.7058824 106.891213,24.7058824 C109.941423,24.7058824 110.958159,23.6470588 110.958159,22.0588235 C110.958159,20 109.997908,19.1176471 105.874477,19.1176471 C103.728033,19.1176471 100.790795,19.4117647 100.225941,21.9411765 C100.056485,22.6470588 100,23.2352941 100,23.7647059 C100,27.6470588 103.219665,28 106.665272,28 C111.974895,27.8823529 114.799163,25.3529412 116.550209,22.0588235 Z" id="Shape"></path>
                <path d="M86.8816893,21.6816143 C88.1322671,21.0986547 89.3828448,21.0986547 90.6902669,21.0986547 C94.1009335,21.0986547 94.6693779,21.5067265 94.6693779,23.3139013 C94.6693779,23.896861 94.6693779,24.7713004 94.1009335,25.2376682 C93.4756446,25.7040359 91.9408447,25.7040359 91.088178,25.7040359 C90.2923559,25.7040359 88.3028004,25.529148 88.1322671,24.5964126 C88.0754226,24.3049327 88.0754226,24.2466368 88.0754226,23.838565 C88.0754226,23.3139013 87.5638226,23.1390135 86.9953782,23.1390135 C86.199556,23.1390135 85.9153338,23.5470852 85.9153338,23.955157 L85.9153338,31.3004484 C85.9153338,31.5919283 86.0290227,32 86.8816893,32 C87.8480449,32 88.0754226,31.6502242 88.0754226,31.1255605 L88.0754226,26.9282511 C88.7575559,27.4529148 89.7239114,27.6278027 91.9408447,27.6860987 C96.0904889,27.6860987 97,26.1704036 97,23.3721973 C97,21.5067265 96.4884,20.632287 95.9768,20.1659193 C95.1241334,19.4080717 94.1577779,19 90.5765781,19 C87.9617337,19 86.5974671,19.4663677 85.4605783,20.2242152 C82.9025784,21.8565022 81.9930673,25.7623318 80.6856452,25.7623318 C78.9803119,25.7623318 78.8097786,21.6816143 78.7529341,19.8161435 C78.6960897,18.941704 76.7633787,18.8251121 76.5360009,19.4663677 C75.9675565,21.6816143 74.5464454,25.7040359 72.9548011,25.7040359 C71.4768456,25.7040359 70.624179,21.8565022 70.2831123,19.4663677 C70.2262679,19.1165919 69.8852012,19 69.4304457,19.058296 C68.1230235,19.1165919 67.9524902,19.4663677 68.0093346,19.9910314 C68.5209346,23.2556054 69.6578234,27.7443946 72.7842677,27.7443946 C74.489601,27.7443946 75.9107121,26.2286996 77.1044453,23.6636771 C77.5023564,25.9955157 78.6960897,27.7443946 80.5719563,27.7443946 C83.5847117,27.8026906 84.1531561,23.0224215 86.8816893,21.6816143 Z" id="Shape"></path>
                <path d="M176.388816,30.1103701 C176.388816,32.0175258 178.028835,33 179.725407,33 C182.496474,33 184.588913,30.6882961 185.267542,27.6830809 C185.493751,27.6830809 187.35998,27.6830809 188.321371,27.6830809 C188.943448,27.6830809 189,27.0473624 189,26.5850216 C189,26.1804734 188.886895,25.66034 188.264819,25.66034 C187.642742,25.66034 186.342037,25.6025474 185.606856,25.66034 C185.663409,23.8687694 185.493751,21.5570655 183.910284,20.4012135 C182.609579,19.4187393 180.913007,19.0719838 179.046778,19.0719838 C174.748796,19.0719838 172.599805,19.9966653 172.599805,22.7707101 C172.599805,24.9090362 173.957063,25.4291696 175.201215,25.7181326 L175.201215,25.7759252 C170.620471,26.4116438 168.641137,24.7356584 168.641137,19.7654949 C168.584585,18.898606 166.605251,18.7830208 166.435594,19.4187393 C165.87007,21.6148581 164.45626,25.6025474 162.929345,25.6025474 C161.458983,25.6025474 160.610697,21.8460285 160.271383,19.4187393 C160.21483,19.0719838 159.875516,18.9563986 159.423097,19.0141912 C158.122391,19.0719838 157.952734,19.4187393 158.009287,19.9388727 C158.518258,23.1752583 159.705859,27.6252883 162.759688,27.6252883 C164.45626,27.6252883 166.039727,25.8337178 167.05767,23.1174657 C167.736299,26.238266 169.941842,27.6830809 173.108777,27.6830809 C175.201215,27.6830809 177.972283,26.8739846 177.972283,25.6025474 C177.972283,24.1577324 174.805348,24.7356584 174.805348,22.8862953 C174.805348,21.5570655 175.370872,21.0369321 178.650911,21.0369321 C180.517141,21.0369321 182.270265,21.1525173 183.005446,22.7707101 C183.34476,23.637599 183.401313,24.6778658 183.34476,25.66034 C179.725407,25.8915104 176.388816,27.3941179 176.388816,30.1103701 Z M179.781959,30.9772591 C179.046778,30.9772591 178.650911,30.4571257 178.650911,29.9947849 C178.650911,28.4343847 181.139217,27.7408735 183.061998,27.6830809 C182.835789,29.3590663 181.478531,30.9772591 179.781959,30.9772591 Z" id="Shape"></path>
                <path d="M155.16092,21.6140351 C155.735632,21.6140351 155.965517,21.6710526 156.195402,21.6710526 C156.827586,21.6710526 157,21.1008772 157,20.4166667 C157,19.6184211 156.770115,19.4473684 155.218391,19.4473684 C152.402299,19.4473684 150.850575,21.6710526 149.758621,23.9517544 C149.068966,25.3201754 148.896552,26.004386 148.666667,26.004386 C148.091954,26.004386 148.436782,20.0745614 146.137931,20.0745614 C143.666667,20.0745614 142.114943,26.004386 140.16092,26.004386 C139.586207,26.004386 139.298851,25.377193 139.298851,23.6096491 L139.298851,15.7412281 C139.298851,15.2280702 139.068966,15 138.091954,15 C137.229885,15 137.057471,15.3991228 137.057471,15.6842105 L137.057471,20.4166667 C136.310345,19.8464912 134.183908,19.504386 132.344828,19.504386 C128.206897,19.504386 127,21.2719298 127,23.7236842 C127,24.9210526 127.344828,26.1754386 128.149425,26.8596491 C129.241379,27.8289474 130.908046,27.9429825 132.287356,27.9429825 C133.551724,27.9429825 135.448276,27.8289474 136.022989,27.5438596 C136.367816,27.372807 136.367816,27.0877193 136.367816,26.8596491 C136.367816,26.2894737 136.137931,25.6622807 135.62069,25.6622807 C135.275862,25.6622807 134.241379,25.9473684 132.172414,25.9473684 C130.103448,25.9473684 129.413793,25.2061404 129.413793,23.4385965 C129.413793,22.0701754 129.816092,21.4429825 132.747126,21.4429825 C133.954023,21.4429825 136.137931,21.5 136.712644,22.4122807 C136.942529,22.8114035 136.942529,23.2105263 137.057471,24.2938596 C137.287356,26.8596491 138.264368,27.9429825 139.758621,27.9429825 C142.862069,27.9429825 144.011494,24.2368421 145.678161,22.3552632 C146.08046,24.0087719 146.022989,28 148.436782,28 C151.482759,28 151.252874,21.6140351 155.16092,21.6140351 Z" id="Shape"></path>
                <path d="M66.5454545,25.6785372 C66.5454545,23.3765178 63.8041958,22.3097284 60.2237762,21.4113793 C57.5384615,20.7376176 54.2377622,20.0638558 54.2377622,18.9970664 C54.2377622,18.0987174 55.5244755,17.5372492 56.4755245,17.1442215 C58.1538462,16.4704598 60.1678322,16.1335789 62.0699301,16.1897257 C62.6293706,16.1897257 65.7062937,16.1897257 65.7062937,17.2003684 C65.7062937,17.4811024 65.4825175,17.7056897 65.034965,17.9864237 C64.4195804,18.3233046 65.2027972,19.9515622 65.986014,19.6146813 C67.1048951,19.10936 68,18.1548642 68,16.9757811 C68,14.2807341 64.1398601,14 62.2377622,14 C60,14 57.6503497,14.4491745 55.6923077,15.2352299 C54.0699301,15.8528448 52,16.9757811 52,18.9409196 C52,21.5798198 56.0839161,22.4781688 59.6083916,23.3765178 C62.2377622,24.0502796 64.3636364,24.6117477 64.3636364,25.6785372 C64.3636364,27.0822075 60.7272727,26.913767 59.8881119,26.913767 C56.4755245,26.913767 54.2937063,26.1838585 54.013986,26.1838585 C53.3426573,26.1838585 53.006993,27.9805565 53.6783217,28.1489969 C55.6363636,28.7104651 57.6503497,28.9911991 59.5524476,28.9911991 C63.972028,29.1034928 66.5454545,28.1489969 66.5454545,25.6785372 Z" id="Shape"></path>
                <path d="M188.833333,10.3228501 C188.611111,11.6766665 187.833333,15.1176166 188.722222,15.7945248 C189.833333,16.697069 192.388889,14.3842993 193.5,13.5381641 C193.5,13.5381641 197.222222,16.3586149 198.5,15.6817067 C199.833333,15.0047985 198,10.3792591 197.944444,9.75875995 C198.944444,8.79980666 201,7.10753615 201,5.92294679 C201,4.73835743 199.277778,4.51272136 196,4.56913038 C195.444444,3.38454102 193.944444,0 192.777778,0 C191.5,0 190.555556,3.72299512 190.388889,4.68194841 C187.333333,4.85117547 185,5.13322055 185,6.48703696 C185,7.67162632 187.388889,9.53312388 188.833333,10.3228501 Z M191.611111,6.14858286 C192.166667,5.6409017 192.555556,3.55376807 192.833333,2.53840577 C193.222222,3.61017709 194.166667,5.69731072 194.833333,6.14858286 C195.444444,6.59985499 197.611111,6.48703696 198.833333,6.43062794 C198.055556,7.16394516 196.333333,8.12289845 196,9.42030585 C195.722222,10.4356682 196.555556,12.5228018 196.944444,13.4817551 C196.111111,12.8612559 194.222222,11.5638485 193.444444,11.5638485 C192.5,11.5638485 190.833333,13.143301 190.111111,13.7638002 C190.277778,13.0304829 191.055556,10.6613042 190.722222,9.64594191 C190.388889,8.63057961 188.944444,7.84085337 187.388889,6.76908204 C189,6.59985499 191.055556,6.71267303 191.611111,6.14858286 Z" id="Shape"></path>
                <path d="M19.3715013,62.3286219 L7.54961832,62.3286219 L7.54961832,56.335689 L17.9083969,56.335689 C20.1908397,56.335689 21.5368957,55.204947 21.5368957,52.9434629 C21.5368957,50.7385159 20.1908397,49.5512367 17.9083969,49.5512367 L7.54961832,49.5512367 L7.54961832,43.7279152 L18.9618321,43.7279152 C21.2442748,43.7279152 22.5903308,42.5971731 22.5903308,40.335689 C22.5903308,38.1872792 21.2442748,37 18.9618321,37 L3.62849873,37 C0.994910941,37 0,37.5088339 0,40.0530035 L0,65.9469965 C0,68.4911661 0.994910941,69 3.62849873,69 L19.3715013,69 C21.653944,69 23,67.869258 23,65.6077739 C23,63.5159011 21.653944,62.3286219 19.3715013,62.3286219 Z M18.1424936,52.0388693 C18.7862595,52.0388693 19.0788804,52.3215548 19.0788804,52.8869258 C19.0788804,53.2826855 18.6692112,53.7349823 18.1424936,53.7349823 C17.7328244,53.7349823 17.264631,53.2826855 17.264631,52.8869258 C17.264631,52.434629 17.6743003,52.0388693 18.1424936,52.0388693 Z M14.6895674,52.0388693 C15.3333333,52.0388693 15.6259542,52.3215548 15.6259542,52.8869258 C15.6259542,53.2826855 15.216285,53.7349823 14.6895674,53.7349823 C14.1628499,53.7349823 13.8117048,53.2826855 13.8117048,52.8869258 C13.8117048,52.434629 14.1628499,52.0388693 14.6895674,52.0388693 Z M11.2366412,52.0388693 C11.8804071,52.0388693 12.1145038,52.3215548 12.1145038,52.8869258 C12.1145038,53.2826855 11.7633588,53.7349823 11.2366412,53.7349823 C10.7099237,53.7349823 10.3002545,53.2826855 10.3002545,52.8869258 C10.2417303,52.434629 10.7099237,52.0388693 11.2366412,52.0388693 Z M18.7277354,39.4876325 C19.3715013,39.4876325 19.605598,39.770318 19.605598,40.335689 C19.605598,40.844523 19.2544529,41.1837456 18.7277354,41.1837456 C18.2010178,41.1837456 17.8498728,40.7879859 17.8498728,40.335689 C17.8498728,39.8268551 18.2010178,39.4876325 18.7277354,39.4876325 Z M15.0407125,39.4876325 C15.6844784,39.4876325 15.9185751,39.770318 15.9185751,40.335689 C15.9185751,40.844523 15.56743,41.1837456 15.0407125,41.1837456 C14.5139949,41.1837456 14.1628499,40.7879859 14.1628499,40.335689 C14.1043257,39.8268551 14.5139949,39.4876325 15.0407125,39.4876325 Z M11.2366412,39.4876325 C11.821883,39.4876325 12.1145038,39.770318 12.1145038,40.335689 C12.1145038,40.844523 11.821883,41.1837456 11.2366412,41.1837456 C10.7099237,41.1837456 10.3002545,40.7879859 10.3002545,40.335689 C10.3002545,39.8268551 10.7099237,39.4876325 11.2366412,39.4876325 Z M3.74554707,66.5123675 C3.21882952,66.5123675 2.80916031,66.1731449 2.80916031,65.664311 C2.80916031,65.0989399 3.21882952,64.7597173 3.74554707,64.7597173 C4.3307888,64.7597173 4.62340967,65.0989399 4.62340967,65.664311 C4.62340967,66.1731449 4.27226463,66.5123675 3.74554707,66.5123675 Z M3.74554707,62.8939929 C3.21882952,62.8939929 2.80916031,62.4982332 2.80916031,62.0459364 C2.80916031,61.4805654 3.21882952,61.1413428 3.74554707,61.1413428 C4.3307888,61.1413428 4.62340967,61.4805654 4.62340967,62.0459364 C4.62340967,62.4416961 4.27226463,62.8939929 3.74554707,62.8939929 Z M3.74554707,59.1625442 C3.21882952,59.1625442 2.80916031,58.7667845 2.80916031,58.3144876 C2.80916031,57.7491166 3.21882952,57.409894 3.74554707,57.409894 C4.3307888,57.409894 4.62340967,57.7491166 4.62340967,58.3144876 C4.62340967,58.7667845 4.27226463,59.1625442 3.74554707,59.1625442 Z M3.74554707,55.5441696 C3.21882952,55.5441696 2.80916031,55.0918728 2.80916031,54.6961131 C2.80916031,54.1872792 3.21882952,53.8480565 3.74554707,53.8480565 C4.3307888,53.8480565 4.62340967,54.130742 4.62340967,54.6961131 C4.62340967,55.0918728 4.27226463,55.5441696 3.74554707,55.5441696 Z M3.74554707,51.9823322 C3.21882952,51.9823322 2.80916031,51.5300353 2.80916031,51.1342756 C2.80916031,50.6254417 3.21882952,50.2862191 3.74554707,50.2862191 C4.3307888,50.2862191 4.62340967,50.5689046 4.62340967,51.1342756 C4.62340967,51.5300353 4.27226463,51.9823322 3.74554707,51.9823322 Z M3.74554707,48.3639576 C3.21882952,48.3639576 2.80916031,47.9116608 2.80916031,47.5159011 C2.80916031,46.95053 3.21882952,46.6678445 3.74554707,46.6678445 C4.3307888,46.6678445 4.62340967,46.95053 4.62340967,47.5159011 C4.62340967,47.9116608 4.27226463,48.3639576 3.74554707,48.3639576 Z M3.74554707,44.8021201 C3.21882952,44.8021201 2.80916031,44.4063604 2.80916031,43.8975265 C2.80916031,43.3886926 3.21882952,43.04947 3.74554707,43.04947 C4.3307888,43.04947 4.62340967,43.3321555 4.62340967,43.8975265 C4.62340967,44.4063604 4.27226463,44.8021201 3.74554707,44.8021201 Z M3.74554707,41.2402827 C3.21882952,41.2402827 2.80916031,40.844523 2.80916031,40.3922261 C2.80916031,39.8268551 3.21882952,39.5441696 3.74554707,39.5441696 C4.3307888,39.5441696 4.62340967,39.8268551 4.62340967,40.3922261 C4.62340967,40.9010601 4.27226463,41.2402827 3.74554707,41.2402827 Z M7.49109415,39.4876325 C8.07633588,39.4876325 8.36895674,39.770318 8.36895674,40.335689 C8.36895674,40.844523 8.07633588,41.1837456 7.49109415,41.1837456 C6.96437659,41.1837456 6.55470738,40.7879859 6.55470738,40.335689 C6.55470738,39.8268551 6.96437659,39.4876325 7.49109415,39.4876325 Z M7.60814249,52.0388693 C8.19338422,52.0388693 8.48600509,52.3215548 8.48600509,52.8869258 C8.48600509,53.2826855 8.13486005,53.7349823 7.60814249,53.7349823 C7.08142494,53.7349823 6.67175573,53.2826855 6.67175573,52.8869258 C6.61323155,52.434629 7.08142494,52.0388693 7.60814249,52.0388693 Z M7.66666667,66.5123675 C7.13994911,66.5123675 6.7302799,66.1731449 6.7302799,65.664311 C6.7302799,65.0989399 7.13994911,64.7597173 7.66666667,64.7597173 C8.2519084,64.7597173 8.54452926,65.0989399 8.54452926,65.664311 C8.54452926,66.1731449 8.19338422,66.5123675 7.66666667,66.5123675 Z M11.7048346,66.5123675 C11.178117,66.5123675 10.7684478,66.1731449 10.7684478,65.664311 C10.7684478,65.0989399 11.178117,64.7597173 11.7048346,64.7597173 C12.2900763,64.7597173 12.5826972,65.0989399 12.5826972,65.664311 C12.524173,66.1731449 12.2315522,66.5123675 11.7048346,66.5123675 Z M15.5089059,66.5123675 C14.9821883,66.5123675 14.5725191,66.1731449 14.5725191,65.664311 C14.5725191,65.0989399 14.9821883,64.7597173 15.5089059,64.7597173 C16.0941476,64.7597173 16.3867684,65.0989399 16.3867684,65.664311 C16.3867684,66.1731449 16.0356234,66.5123675 15.5089059,66.5123675 Z M19.1959288,66.5123675 C18.6692112,66.5123675 18.259542,66.1731449 18.259542,65.664311 C18.259542,65.0989399 18.6692112,64.7597173 19.1959288,64.7597173 C19.7811705,64.7597173 20.0737913,65.0989399 20.0737913,65.664311 C20.0737913,66.1731449 19.7226463,66.5123675 19.1959288,66.5123675 Z" id="Shape"></path>
                <path d="M43.4750628,52.442375 L50.7203756,43.5468788 C52.7423234,41.1971251 52.2930017,39.238997 50.6080452,37.8403341 C48.9230887,36.5535642 47.0134714,36.6095107 45.0476888,38.9592645 L38.9256803,46.7917768 L32.9160022,38.9592645 C30.9502197,36.6095107 29.0967675,36.5535642 27.3556458,37.8403341 C25.7268546,39.238997 25.2213676,41.1971251 27.2433154,43.5468788 L34.432463,52.442375 L26.4008372,62.3449085 C24.3788894,64.6946622 24.6597155,66.7646833 26.5131676,68.1073998 C28.1419589,69.3941696 30.1077414,69.5060627 32.0173588,66.9884694 L38.9256803,58.0929732 L45.9463323,66.9884694 C47.7997844,69.5060627 49.8217322,69.3382231 51.5066887,68.1073998 C53.3039756,66.7646833 53.6409669,64.7506087 51.6190191,62.3449085 L43.4750628,52.442375 Z M29.7707501,41.5328042 C29.2652632,41.5328042 28.8721067,41.1411786 28.8721067,40.6936065 C28.8721067,40.1341413 29.2652632,39.8544087 29.7707501,39.8544087 C30.3324023,39.8544087 30.6132284,40.1900878 30.6132284,40.6936065 C30.6132284,41.1971251 30.2762371,41.5328042 29.7707501,41.5328042 Z M31.9611935,44.4420231 C31.4557066,44.4420231 31.0625501,43.994451 31.0625501,43.6028254 C31.0625501,43.0433602 31.4557066,42.7636276 31.9611935,42.7636276 C32.5228457,42.7636276 32.8036718,43.0993067 32.8036718,43.6028254 C32.7475066,43.994451 32.4666805,44.4420231 31.9611935,44.4420231 Z M28.7597762,65.8695391 C28.3666197,65.8695391 27.917298,65.4779135 27.917298,65.0303413 C27.917298,64.4708762 28.3666197,64.1351971 28.7597762,64.1351971 C29.2652632,64.1351971 29.6022545,64.5268227 29.6022545,65.0303413 C29.6022545,65.53386 29.2652632,65.8695391 28.7597762,65.8695391 Z M31.0063849,62.7924807 C30.6132284,62.7924807 30.1639066,62.3449085 30.1639066,61.9532829 C30.1639066,61.3938177 30.5570631,61.0581386 31.0063849,61.0581386 C31.568037,61.0581386 31.9050283,61.4497642 31.9050283,61.9532829 C31.9050283,62.3449085 31.5118718,62.7924807 31.0063849,62.7924807 Z M33.4776544,59.6594757 C32.9721674,59.6594757 32.5790109,59.2678501 32.5790109,58.7643314 C32.5790109,58.2608128 32.9721674,57.9251337 33.4776544,57.9251337 C34.0393065,57.9251337 34.3201326,58.2608128 34.3201326,58.7643314 C34.3762978,59.2119036 34.0393065,59.6594757 33.4776544,59.6594757 Z M48.3052714,39.7984622 C48.8669235,39.7984622 49.1477496,40.1341413 49.1477496,40.63766 C49.1477496,41.1411786 48.8107583,41.4768577 48.3052714,41.4768577 C47.7997844,41.4768577 47.4627931,41.0852321 47.4627931,40.63766 C47.4627931,40.1341413 47.7997844,39.7984622 48.3052714,39.7984622 Z M45.8901671,42.6517346 C46.395654,42.6517346 46.7326453,42.9874137 46.7326453,43.4909323 C46.7326453,43.8825579 46.3394888,44.3301301 45.8901671,44.3301301 C45.4408453,44.3301301 45.0476888,43.8825579 45.0476888,43.4909323 C45.0476888,42.9314672 45.3846801,42.6517346 45.8901671,42.6517346 Z M34.151637,47.239349 C33.64615,47.239349 33.2529935,46.8477233 33.2529935,46.4001512 C33.2529935,45.840686 33.64615,45.5609534 34.151637,45.5609534 C34.5447935,45.5609534 34.9941152,45.8966326 34.9941152,46.4001512 C34.93795,46.8477233 34.5447935,47.239349 34.151637,47.239349 Z M36.0612543,56.5264708 C35.5557674,56.5264708 35.1626108,56.1348451 35.1626108,55.687273 C35.1626108,55.1278078 35.5557674,54.8480753 36.0612543,54.8480753 C36.4544108,54.8480753 36.9037325,55.1837544 36.9037325,55.687273 C36.9037325,56.1907917 36.4544108,56.5264708 36.0612543,56.5264708 Z M36.3982456,50.0366748 C36.0050891,50.0366748 35.5557674,49.5891027 35.5557674,49.197477 C35.5557674,48.6380119 36.0050891,48.3582793 36.3982456,48.3582793 C36.9037325,48.3582793 37.2407238,48.6939584 37.2407238,49.197477 C37.2407238,49.5891027 36.9037325,50.0366748 36.3982456,50.0366748 Z M38.9256803,53.1696797 C38.4201934,53.1696797 38.0832021,52.7780541 38.0832021,52.330482 C38.0832021,51.7710168 38.4763586,51.4353377 38.9256803,51.4353377 C39.4873325,51.4353377 39.7681585,51.8269633 39.7681585,52.330482 C39.8243238,52.7780541 39.4873325,53.1696797 38.9256803,53.1696797 Z M41.5092802,48.3023328 C42.0147672,48.3023328 42.3517585,48.6939584 42.3517585,49.1415305 C42.3517585,49.5331561 42.0147672,49.9807283 41.5092802,49.9807283 C41.0037933,49.9807283 40.6106368,49.5891027 40.6106368,49.1415305 C40.6106368,48.6380119 41.0037933,48.3023328 41.5092802,48.3023328 Z M41.6216107,56.5264708 C41.1161237,56.5264708 40.7229672,56.1348451 40.7229672,55.687273 C40.7229672,55.1278078 41.1161237,54.8480753 41.6216107,54.8480753 C42.1270976,54.8480753 42.4640889,55.1837544 42.4640889,55.687273 C42.4640889,56.1907917 42.1270976,56.5264708 41.6216107,56.5264708 Z M42.8572454,46.1204186 C42.8572454,45.5609534 43.3065671,45.2812209 43.6997237,45.2812209 C44.2052106,45.2812209 44.5422019,45.6169 44.5422019,46.1204186 C44.5422019,46.6239373 44.1490454,46.9596164 43.6997237,46.9596164 C43.3065671,47.0155629 42.8572454,46.6239373 42.8572454,46.1204186 Z M44.0928802,59.6594757 C43.6997237,59.6594757 43.2504019,59.2678501 43.2504019,58.7643314 C43.2504019,58.2608128 43.6435584,57.9251337 44.0928802,57.9251337 C44.6545323,57.9251337 44.9915236,58.2608128 44.9915236,58.7643314 C45.0476888,59.2678501 44.6545323,59.6594757 44.0928802,59.6594757 Z M46.7326453,62.9043737 C46.2271584,62.9043737 45.8901671,62.4568015 45.8901671,62.0651759 C45.8901671,61.5057108 46.2833236,61.1700317 46.7326453,61.1700317 C47.2942975,61.1700317 47.5751235,61.5616573 47.5751235,62.0651759 C47.5751235,62.400855 47.2942975,62.9043737 46.7326453,62.9043737 Z M49.1477496,65.9254856 C48.7545931,65.9254856 48.3052714,65.53386 48.3052714,65.0862878 C48.3052714,64.5268227 48.7545931,64.1911436 49.1477496,64.1911436 C49.7094017,64.1911436 49.9902278,64.5827692 49.9902278,65.0862878 C50.046393,65.5898065 49.7094017,65.9254856 49.1477496,65.9254856 Z" id="Shape"></path>
                <path d="M66.610283,37 L60.5893828,37 C58.3315452,37 57,37.5088339 57,40.0530035 L57,64.590106 C57,67.6996466 58.5052251,69 60.7051694,69 C62.8472204,69 64.4103387,67.6996466 64.4103387,64.590106 L64.4103387,58.7102473 L66.7260696,58.7102473 C75.0048074,58.7102473 78.9994431,54.6961131 78.9994431,47.8551237 C79.0573363,41.2402827 74.5995545,37 66.610283,37 Z M71.4154245,40.1095406 C71.9943573,40.1095406 72.3417169,40.5053004 72.3417169,41.0141343 C72.3417169,41.409894 71.936464,41.8621908 71.4154245,41.8621908 C70.8943851,41.8621908 70.5470255,41.4664311 70.5470255,41.0141343 C70.5470255,40.4487633 70.8943851,40.1095406 71.4154245,40.1095406 Z M67.9418283,39.3745583 C68.520761,39.3745583 68.8102273,39.770318 68.8102273,40.2226148 C68.8102273,40.7314488 68.4628677,41.1272085 67.9418283,41.1272085 C67.4207888,41.1272085 67.0734292,40.7314488 67.0734292,40.2226148 C67.0734292,39.7137809 67.4207888,39.3745583 67.9418283,39.3745583 Z M60.7051694,66.3427562 C60.1841299,66.3427562 59.778877,66.0035336 59.778877,65.4946996 C59.778877,64.9293286 60.1841299,64.590106 60.7051694,64.590106 C61.2262088,64.590106 61.5735684,64.9858657 61.5735684,65.4946996 C61.5735684,66.0600707 61.2262088,66.3427562 60.7051694,66.3427562 Z M60.7051694,62.7809187 C60.1841299,62.7809187 59.778877,62.385159 59.778877,61.9328622 C59.778877,61.3674912 60.1841299,61.0282686 60.7051694,61.0282686 C61.2262088,61.0282686 61.5735684,61.4240283 61.5735684,61.9328622 C61.5735684,62.3286219 61.2262088,62.7809187 60.7051694,62.7809187 Z M60.7051694,59.1625442 C60.1841299,59.1625442 59.778877,58.7667845 59.778877,58.3144876 C59.778877,57.7491166 60.1841299,57.409894 60.7051694,57.409894 C61.2262088,57.409894 61.5735684,57.8056537 61.5735684,58.3144876 C61.5735684,58.7667845 61.2262088,59.1625442 60.7051694,59.1625442 Z M60.7051694,55.6007067 C60.1841299,55.6007067 59.778877,55.1484099 59.778877,54.7526502 C59.778877,54.2438163 60.1841299,53.9045936 60.7051694,53.9045936 C61.2262088,53.9045936 61.5735684,54.3003534 61.5735684,54.7526502 C61.5735684,55.1484099 61.2262088,55.6007067 60.7051694,55.6007067 Z M60.7051694,51.869258 C60.1841299,51.869258 59.778877,51.4169611 59.778877,51.0212014 C59.778877,50.5123675 60.1841299,50.1731449 60.7051694,50.1731449 C61.2262088,50.1731449 61.5735684,50.5689046 61.5735684,51.0212014 C61.5735684,51.4169611 61.2262088,51.869258 60.7051694,51.869258 Z M60.7051694,48.3074205 C60.1841299,48.3074205 59.778877,47.8551237 59.778877,47.459364 C59.778877,46.8939929 60.1841299,46.6113074 60.7051694,46.6113074 C61.2262088,46.6113074 61.5735684,46.95053 61.5735684,47.459364 C61.5735684,47.8551237 61.2262088,48.3074205 60.7051694,48.3074205 Z M60.7051694,44.6890459 C60.1841299,44.6890459 59.778877,44.2932862 59.778877,43.7844523 C59.778877,43.2756184 60.1841299,42.9363958 60.7051694,42.9363958 C61.2262088,42.9363958 61.5735684,43.2756184 61.5735684,43.7844523 C61.5735684,44.2932862 61.2262088,44.6890459 60.7051694,44.6890459 Z M60.7051694,41.1837456 C60.1841299,41.1837456 59.778877,40.7879859 59.778877,40.2791519 C59.778877,39.770318 60.1841299,39.4310954 60.7051694,39.4310954 C61.2262088,39.4310954 61.5735684,39.8268551 61.5735684,40.2791519 C61.5735684,40.7314488 61.2262088,41.1837456 60.7051694,41.1837456 Z M63.3682598,40.1660777 C63.3682598,39.6572438 63.7735127,39.3180212 64.2945522,39.3180212 C64.8734849,39.3180212 65.1629512,39.7137809 65.1629512,40.1660777 C65.1629512,40.6749117 64.8734849,41.0706714 64.2945522,41.0706714 C63.7735127,41.0706714 63.3682598,40.6749117 63.3682598,40.1660777 Z M64.4103387,56.3922261 C63.8892993,56.3922261 63.4840464,55.9964664 63.4840464,55.4876325 C63.4840464,54.9222615 63.8892993,54.639576 64.4103387,54.639576 C64.9892714,54.639576 65.2787378,54.9222615 65.2787378,55.4876325 C65.2787378,55.9399293 64.9892714,56.3922261 64.4103387,56.3922261 Z M64.468232,52.1519435 L64.468232,43.2756184 L66.7839628,43.2756184 C70.2575591,43.2756184 71.8785707,44.9717314 71.8785707,47.9116608 C71.8785707,50.7385159 70.1417726,52.1519435 66.7839628,52.1519435 L64.468232,52.1519435 Z M68.1155081,56.2226148 C67.5944686,56.2226148 67.1892157,55.8268551 67.1892157,55.3180212 C67.1892157,54.8091873 67.5944686,54.4699647 68.1155081,54.4699647 C68.6944408,54.4699647 68.9839071,54.8091873 68.9839071,55.3180212 C68.9839071,55.8268551 68.6944408,56.2226148 68.1155081,56.2226148 Z M71.6469976,55.6007067 C71.1259582,55.6007067 70.7785986,55.1484099 70.7785986,54.7526502 C70.7785986,54.2438163 71.1838515,53.9045936 71.6469976,53.9045936 C72.2259303,53.9045936 72.5153967,54.3003534 72.5153967,54.7526502 C72.57329,55.1484099 72.2259303,55.6007067 71.6469976,55.6007067 Z M73.2101159,43.04947 C73.2101159,42.4840989 73.6153688,42.1448763 74.1364083,42.1448763 C74.6574477,42.1448763 75.0048074,42.540636 75.0048074,43.04947 C75.0048074,43.4452297 74.6574477,43.8975265 74.1364083,43.8975265 C73.6153688,43.8975265 73.2101159,43.4452297 73.2101159,43.04947 Z M74.4258746,53.5088339 C74.0206217,53.5088339 73.5574756,53.1130742 73.5574756,52.6607774 C73.5574756,52.0954064 74.0206217,51.7561837 74.4258746,51.7561837 C75.0048074,51.7561837 75.2942737,52.1519435 75.2942737,52.6607774 C75.2942737,53.1130742 74.9469141,53.5088339 74.4258746,53.5088339 Z M75.6995266,50.3427562 C75.1784872,50.3427562 74.8311275,49.9469965 74.8311275,49.4381625 C74.8311275,48.9293286 75.2363804,48.590106 75.6995266,48.590106 C76.2784593,48.590106 76.5679257,48.9293286 76.5679257,49.4381625 C76.5679257,49.8904594 76.2205661,50.3427562 75.6995266,50.3427562 Z M76.5100324,45.9893993 C76.5100324,46.4982332 76.1626728,46.8939929 75.6416333,46.8939929 C75.1205939,46.8939929 74.7732343,46.4982332 74.7732343,45.9893993 C74.7732343,45.4240283 75.1784872,45.1413428 75.6416333,45.1413428 C76.2205661,45.1413428 76.5100324,45.4240283 76.5100324,45.9893993 Z" id="Shape"></path>
                <path d="M102.371501,62.3286219 L90.5496183,62.3286219 L90.5496183,56.335689 L100.908397,56.335689 C103.19084,56.335689 104.536896,55.204947 104.536896,52.9434629 C104.536896,50.7385159 103.19084,49.5512367 100.908397,49.5512367 L90.5496183,49.5512367 L90.5496183,43.7279152 L101.961832,43.7279152 C104.244275,43.7279152 105.590331,42.5971731 105.590331,40.335689 C105.590331,38.1872792 104.244275,37 101.961832,37 L86.6284987,37 C83.9949109,37 83,37.5088339 83,40.0530035 L83,65.9469965 C83,68.4911661 83.9949109,69 86.6284987,69 L102.371501,69 C104.653944,69 106,67.869258 106,65.6077739 C106,63.5159011 104.653944,62.3286219 102.371501,62.3286219 Z M101.142494,52.0388693 C101.78626,52.0388693 102.07888,52.3215548 102.07888,52.8869258 C102.07888,53.2826855 101.669211,53.7349823 101.142494,53.7349823 C100.732824,53.7349823 100.264631,53.2826855 100.264631,52.8869258 C100.264631,52.434629 100.6743,52.0388693 101.142494,52.0388693 Z M97.6895674,52.0388693 C98.3333333,52.0388693 98.6259542,52.3215548 98.6259542,52.8869258 C98.6259542,53.2826855 98.216285,53.7349823 97.6895674,53.7349823 C97.1628499,53.7349823 96.8117048,53.2826855 96.8117048,52.8869258 C96.7531807,52.434629 97.1628499,52.0388693 97.6895674,52.0388693 Z M94.178117,52.0388693 C94.821883,52.0388693 95.0559796,52.3215548 95.0559796,52.8869258 C95.0559796,53.2826855 94.7048346,53.7349823 94.178117,53.7349823 C93.6513995,53.7349823 93.2417303,53.2826855 93.2417303,52.8869258 C93.2417303,52.434629 93.6513995,52.0388693 94.178117,52.0388693 Z M101.727735,39.4876325 C102.371501,39.4876325 102.605598,39.770318 102.605598,40.335689 C102.605598,40.844523 102.254453,41.1837456 101.727735,41.1837456 C101.201018,41.1837456 100.849873,40.7879859 100.849873,40.335689 C100.849873,39.8268551 101.201018,39.4876325 101.727735,39.4876325 Z M98.0407125,39.4876325 C98.6844784,39.4876325 98.9185751,39.770318 98.9185751,40.335689 C98.9185751,40.844523 98.56743,41.1837456 98.0407125,41.1837456 C97.5139949,41.1837456 97.1628499,40.7879859 97.1628499,40.335689 C97.1043257,39.8268551 97.5139949,39.4876325 98.0407125,39.4876325 Z M94.2366412,39.4876325 C94.821883,39.4876325 95.1145038,39.770318 95.1145038,40.335689 C95.1145038,40.844523 94.821883,41.1837456 94.2366412,41.1837456 C93.7099237,41.1837456 93.3002545,40.7879859 93.3002545,40.335689 C93.3002545,39.8268551 93.7099237,39.4876325 94.2366412,39.4876325 Z M86.7455471,66.5123675 C86.2188295,66.5123675 85.8091603,66.1731449 85.8091603,65.664311 C85.8091603,65.0989399 86.2188295,64.7597173 86.7455471,64.7597173 C87.3307888,64.7597173 87.6234097,65.0989399 87.6234097,65.664311 C87.6234097,66.1731449 87.2722646,66.5123675 86.7455471,66.5123675 Z M86.7455471,62.8939929 C86.2188295,62.8939929 85.8091603,62.4982332 85.8091603,62.0459364 C85.8091603,61.4805654 86.2188295,61.1413428 86.7455471,61.1413428 C87.3307888,61.1413428 87.6234097,61.4805654 87.6234097,62.0459364 C87.6234097,62.4416961 87.2722646,62.8939929 86.7455471,62.8939929 Z M86.7455471,59.1625442 C86.2188295,59.1625442 85.8091603,58.7667845 85.8091603,58.3144876 C85.8091603,57.7491166 86.2188295,57.409894 86.7455471,57.409894 C87.3307888,57.409894 87.6234097,57.7491166 87.6234097,58.3144876 C87.6234097,58.7667845 87.2722646,59.1625442 86.7455471,59.1625442 Z M86.7455471,55.5441696 C86.2188295,55.5441696 85.8091603,55.0918728 85.8091603,54.6961131 C85.8091603,54.1872792 86.2188295,53.8480565 86.7455471,53.8480565 C87.3307888,53.8480565 87.6234097,54.130742 87.6234097,54.6961131 C87.6234097,55.0918728 87.2722646,55.5441696 86.7455471,55.5441696 Z M86.7455471,51.9823322 C86.2188295,51.9823322 85.8091603,51.5300353 85.8091603,51.1342756 C85.8091603,50.6254417 86.2188295,50.2862191 86.7455471,50.2862191 C87.3307888,50.2862191 87.6234097,50.5689046 87.6234097,51.1342756 C87.6234097,51.5300353 87.2722646,51.9823322 86.7455471,51.9823322 Z M86.7455471,48.3639576 C86.2188295,48.3639576 85.8091603,47.9116608 85.8091603,47.5159011 C85.8091603,46.95053 86.2188295,46.6678445 86.7455471,46.6678445 C87.3307888,46.6678445 87.6234097,46.95053 87.6234097,47.5159011 C87.6234097,47.9116608 87.2722646,48.3639576 86.7455471,48.3639576 Z M86.7455471,44.8021201 C86.2188295,44.8021201 85.8091603,44.4063604 85.8091603,43.8975265 C85.8091603,43.3886926 86.2188295,43.04947 86.7455471,43.04947 C87.3307888,43.04947 87.6234097,43.3321555 87.6234097,43.8975265 C87.6234097,44.4063604 87.2722646,44.8021201 86.7455471,44.8021201 Z M86.7455471,41.2402827 C86.2188295,41.2402827 85.8091603,40.844523 85.8091603,40.3922261 C85.8091603,39.8268551 86.2188295,39.5441696 86.7455471,39.5441696 C87.3307888,39.5441696 87.6234097,39.8268551 87.6234097,40.3922261 C87.6234097,40.9010601 87.2722646,41.2402827 86.7455471,41.2402827 Z M90.4910941,39.4876325 C91.0763359,39.4876325 91.3689567,39.770318 91.3689567,40.335689 C91.3689567,40.844523 91.0763359,41.1837456 90.4910941,41.1837456 C89.9643766,41.1837456 89.5547074,40.7879859 89.5547074,40.335689 C89.4961832,39.8268551 89.9643766,39.4876325 90.4910941,39.4876325 Z M90.5496183,52.0388693 C91.1348601,52.0388693 91.4274809,52.3215548 91.4274809,52.8869258 C91.4274809,53.2826855 91.0763359,53.7349823 90.5496183,53.7349823 C90.0229008,53.7349823 89.6132316,53.2826855 89.6132316,52.8869258 C89.6132316,52.434629 90.0229008,52.0388693 90.5496183,52.0388693 Z M90.6666667,66.5123675 C90.1399491,66.5123675 89.7302799,66.1731449 89.7302799,65.664311 C89.7302799,65.0989399 90.1399491,64.7597173 90.6666667,64.7597173 C91.2519084,64.7597173 91.5445293,65.0989399 91.5445293,65.664311 C91.5445293,66.1731449 91.1933842,66.5123675 90.6666667,66.5123675 Z M94.6463104,66.5123675 C94.1195929,66.5123675 93.7099237,66.1731449 93.7099237,65.664311 C93.7099237,65.0989399 94.1195929,64.7597173 94.6463104,64.7597173 C95.2315522,64.7597173 95.524173,65.0989399 95.524173,65.664311 C95.524173,66.1731449 95.173028,66.5123675 94.6463104,66.5123675 Z M98.5089059,66.5123675 C97.9821883,66.5123675 97.5725191,66.1731449 97.5725191,65.664311 C97.5725191,65.0989399 97.9821883,64.7597173 98.5089059,64.7597173 C99.0941476,64.7597173 99.3867684,65.0989399 99.3867684,65.664311 C99.3282443,66.1731449 99.0356234,66.5123675 98.5089059,66.5123675 Z M102.195929,66.5123675 C101.669211,66.5123675 101.259542,66.1731449 101.259542,65.664311 C101.259542,65.0989399 101.669211,64.7597173 102.195929,64.7597173 C102.78117,64.7597173 103.073791,65.0989399 103.073791,65.664311 C103.073791,66.1731449 102.722646,66.5123675 102.195929,66.5123675 Z" id="Shape"></path>
                <path d="M130.572502,62.2631579 C129.823364,62.1508772 129.016599,61.4210526 128.209834,60.1859649 L125.78954,56.3684211 C127.460695,56.0315789 128.958973,55.0210526 130.226746,53.4491228 C131.552145,51.7649123 132.186032,49.6315789 132.186032,46.9368421 C132.128406,41.0421053 127.748826,37 120.026934,37 L113.111807,37 C111.094895,37 110,37.7298246 110,40.2561404 L110,64.3964912 C110,67.5403509 111.498277,68.7754386 113.688068,68.7754386 C115.820232,68.7754386 117.376135,67.5403509 117.376135,64.3964912 L117.376135,56.6491228 L123.081115,65.0701754 C125.443783,68.3824561 126.999687,69 129.419981,69 C130.630128,68.9438596 131.552145,68.6070175 132.07078,67.9333333 C132.64704,67.4280702 132.935171,66.6982456 132.992797,65.7438596 C133.050423,64.6210526 132.762293,63.7789474 132.128406,63.1614035 C131.955528,62.7122807 131.379267,62.4315789 130.572502,62.2631579 Z M128.786095,49.5754386 C128.26746,49.5754386 127.921704,49.1824561 127.921704,48.7333333 C127.921704,48.1719298 128.325086,47.8350877 128.786095,47.8350877 C129.362355,47.8350877 129.650485,48.2280702 129.650485,48.7333333 C129.708111,49.1824561 129.362355,49.5754386 128.786095,49.5754386 Z M129.650485,45.5333333 C129.650485,46.0385965 129.304729,46.4315789 128.786095,46.4315789 C128.26746,46.4315789 127.921704,46.0385965 127.921704,45.5333333 C127.921704,45.0280702 128.325086,44.6912281 128.786095,44.6912281 C129.304729,44.6912281 129.650485,45.0280702 129.650485,45.5333333 Z M127.287817,41.8842105 C127.806452,41.8842105 128.152208,42.277193 128.152208,42.7824561 C128.152208,43.1754386 127.806452,43.6245614 127.287817,43.6245614 C126.769183,43.6245614 126.3658,43.1754386 126.3658,42.7824561 C126.3658,42.2210526 126.769183,41.8842105 127.287817,41.8842105 Z M127.230191,50.8105263 C127.748826,50.8105263 128.094582,51.1473684 128.094582,51.6526316 C128.094582,52.1578947 127.748826,52.4947368 127.230191,52.4947368 C126.711557,52.4947368 126.308174,52.1017544 126.308174,51.6526316 C126.250548,51.1473684 126.711557,50.8105263 127.230191,50.8105263 Z M120.948951,39.4140351 C121.525211,39.4140351 121.813342,39.8070175 121.813342,40.2561404 C121.813342,40.7614035 121.467585,41.0982456 120.948951,41.0982456 C120.430316,41.0982456 120.08456,40.7052632 120.08456,40.2561404 C120.08456,39.7508772 120.430316,39.4140351 120.948951,39.4140351 Z M117.376135,39.3578947 C117.952396,39.3578947 118.240526,39.7508772 118.240526,40.2 C118.240526,40.7052632 117.952396,41.0982456 117.376135,41.0982456 C116.857501,41.0982456 116.454118,40.7052632 116.454118,40.2 C116.454118,39.6947368 116.857501,39.3578947 117.376135,39.3578947 Z M113.80332,65.8561404 C113.284685,65.8561404 112.881303,65.4631579 112.881303,64.9578947 C112.881303,64.3964912 113.284685,64.1157895 113.80332,64.1157895 C114.321954,64.1157895 114.667711,64.4526316 114.667711,64.9578947 C114.667711,65.4070175 114.321954,65.8561404 113.80332,65.8561404 Z M113.80332,62.2070175 C113.284685,62.2070175 112.881303,61.8140351 112.881303,61.3649123 C112.881303,60.8035088 113.284685,60.4666667 113.80332,60.4666667 C114.321954,60.4666667 114.667711,60.8596491 114.667711,61.3649123 C114.667711,61.8701754 114.321954,62.2070175 113.80332,62.2070175 Z M113.80332,58.6701754 C113.284685,58.6701754 112.881303,58.3333333 112.881303,57.8280702 C112.881303,57.2666667 113.284685,56.9298246 113.80332,56.9298246 C114.321954,56.9298246 114.667711,57.322807 114.667711,57.8280702 C114.667711,58.3333333 114.321954,58.6701754 113.80332,58.6701754 Z M113.80332,55.0210526 C113.284685,55.0210526 112.881303,54.6280702 112.881303,54.1789474 C112.881303,53.6175439 113.284685,53.2807018 113.80332,53.2807018 C114.321954,53.2807018 114.667711,53.6736842 114.667711,54.1789474 C114.667711,54.6280702 114.321954,55.0210526 113.80332,55.0210526 Z M113.80332,51.5403509 C113.284685,51.5403509 112.881303,51.1473684 112.881303,50.6982456 C112.881303,50.1929825 113.284685,49.8561404 113.80332,49.8561404 C114.321954,49.8561404 114.667711,50.2491228 114.667711,50.6982456 C114.667711,51.2035088 114.321954,51.5403509 113.80332,51.5403509 Z M113.80332,48.0596491 C113.284685,48.0596491 112.881303,47.6105263 112.881303,47.2175439 C112.881303,46.7122807 113.284685,46.3754386 113.80332,46.3754386 C114.321954,46.3754386 114.667711,46.7684211 114.667711,47.2175439 C114.667711,47.554386 114.321954,48.0596491 113.80332,48.0596491 Z M113.80332,44.5789474 C113.284685,44.5789474 112.881303,44.1859649 112.881303,43.6807018 C112.881303,43.1754386 113.284685,42.8385965 113.80332,42.8385965 C114.321954,42.8385965 114.667711,43.1754386 114.667711,43.6807018 C114.667711,44.1298246 114.321954,44.5789474 113.80332,44.5789474 Z M113.80332,41.154386 C113.284685,41.154386 112.881303,40.7614035 112.881303,40.3122807 C112.881303,39.7508772 113.284685,39.4701754 113.80332,39.4701754 C114.321954,39.4701754 114.667711,39.8070175 114.667711,40.3122807 C114.667711,40.8175439 114.321954,41.154386 113.80332,41.154386 Z M117.376135,55.0210526 C116.857501,55.0210526 116.454118,54.6280702 116.454118,54.1789474 C116.454118,53.6175439 116.857501,53.2807018 117.376135,53.2807018 C117.952396,53.2807018 118.240526,53.6736842 118.240526,54.1789474 C118.240526,54.5719298 117.952396,55.0210526 117.376135,55.0210526 Z M119.911682,54.1789474 C119.911682,53.6175439 120.315064,53.2807018 120.776073,53.2807018 C121.352333,53.2807018 121.640464,53.6736842 121.640464,54.1789474 C121.640464,54.5719298 121.294707,55.0210526 120.776073,55.0210526 C120.315064,55.0210526 119.911682,54.5719298 119.911682,54.1789474 Z M122.159098,58.5017544 C121.755716,58.5017544 121.294707,58.1649123 121.294707,57.6596491 C121.294707,57.0982456 121.69809,56.7614035 122.159098,56.7614035 C122.735359,56.7614035 123.081115,57.154386 123.081115,57.6596491 C123.081115,58.2210526 122.677733,58.5017544 122.159098,58.5017544 Z M120.08456,50.922807 L117.549013,50.922807 L117.549013,43.6245614 L120.142186,43.6245614 C123.081115,43.6245614 124.809897,44.9719298 124.809897,47.4421053 C124.752271,49.6315789 123.081115,50.922807 120.08456,50.922807 Z M124.17601,52.4947368 C124.752271,52.4947368 125.098027,52.7754386 125.098027,53.3368421 C125.098027,53.8421053 124.694645,54.2350877 124.17601,54.2350877 C123.772628,54.2350877 123.311619,53.8421053 123.311619,53.3368421 C123.369245,52.7754386 123.772628,52.4947368 124.17601,52.4947368 Z M124.348888,61.7017544 C123.945506,61.7017544 123.484497,61.3087719 123.484497,60.8035088 C123.484497,60.2421053 123.88788,59.9614035 124.348888,59.9614035 C124.925149,59.9614035 125.270905,60.2421053 125.270905,60.8035088 C125.270905,61.3087719 124.925149,61.7017544 124.348888,61.7017544 Z M124.406514,41.7719298 C123.88788,41.7719298 123.542123,41.3789474 123.542123,40.9298246 C123.542123,40.3684211 123.88788,40.0315789 124.406514,40.0315789 C124.982775,40.0315789 125.328531,40.4245614 125.328531,40.9298246 C125.386157,41.3789474 124.982775,41.7719298 124.406514,41.7719298 Z M126.711557,64.6210526 C126.192922,64.6210526 125.847166,64.1719298 125.847166,63.7789474 C125.847166,63.2175439 126.250548,62.8807018 126.711557,62.8807018 C127.287817,62.8807018 127.575947,63.2736842 127.575947,63.7789474 C127.575947,64.1719298 127.230191,64.6210526 126.711557,64.6210526 Z M129.823364,66.5298246 C129.304729,66.5298246 128.958973,66.0807018 128.958973,65.6877193 C128.958973,65.1263158 129.362355,64.7894737 129.823364,64.7894737 C130.341998,64.7894737 130.687754,65.1824561 130.687754,65.6877193 C130.745381,66.0807018 130.341998,66.5298246 129.823364,66.5298246 Z" id="Shape"></path>
                <path d="M140.5,37 C138.421875,37 137,38.130742 137,41.8056537 L137,64.590106 C137,67.6996466 138.421875,69 140.5,69 C142.523438,69 144,67.6996466 144,64.590106 L144,41.409894 C144,38.3003534 142.523438,37 140.5,37 Z M140.5,66.0600707 C140.007812,66.0600707 139.625,65.664311 139.625,65.155477 C139.625,64.590106 140.007812,64.3074205 140.5,64.3074205 C140.992188,64.3074205 141.320312,64.6466431 141.320312,65.155477 C141.320312,65.6077739 140.992188,66.0600707 140.5,66.0600707 Z M140.5,62.4416961 C140.007812,62.4416961 139.625,62.1024735 139.625,61.5936396 C139.625,61.0282686 140.007812,60.6890459 140.5,60.6890459 C140.992188,60.6890459 141.320312,61.0848057 141.320312,61.5936396 C141.320312,62.1024735 140.992188,62.4416961 140.5,62.4416961 Z M140.5,58.9363958 C140.007812,58.9363958 139.625,58.540636 139.625,58.0883392 C139.625,57.5229682 140.007812,57.1837456 140.5,57.1837456 C140.992188,57.1837456 141.320312,57.5795053 141.320312,58.0883392 C141.320312,58.540636 140.992188,58.9363958 140.5,58.9363958 Z M140.5,55.4310954 C140.007812,55.4310954 139.625,55.0353357 139.625,54.5830389 C139.625,54.0176678 140.007812,53.6784452 140.5,53.6784452 C140.992188,53.6784452 141.320312,54.0742049 141.320312,54.5830389 C141.320312,55.0353357 140.992188,55.4310954 140.5,55.4310954 Z M140.5,51.9257951 C140.007812,51.9257951 139.625,51.4734982 139.625,51.0777385 C139.625,50.5689046 140.007812,50.229682 140.5,50.229682 C140.992188,50.229682 141.320312,50.6254417 141.320312,51.0777385 C141.320312,51.4734982 140.992188,51.9257951 140.5,51.9257951 Z M140.5,48.4204947 C140.007812,48.4204947 139.625,48.024735 139.625,47.5159011 C139.625,47.0070671 140.007812,46.6678445 140.5,46.6678445 C140.992188,46.6678445 141.320312,47.0070671 141.320312,47.5159011 C141.320312,48.024735 140.992188,48.4204947 140.5,48.4204947 Z M140.5,44.9151943 C140.007812,44.9151943 139.625,44.5194346 139.625,44.0106007 C139.625,43.5017668 140.007812,43.1625442 140.5,43.1625442 C140.992188,43.1625442 141.320312,43.5583039 141.320312,44.0106007 C141.320312,44.5194346 140.992188,44.9151943 140.5,44.9151943 Z M140.5,41.409894 C140.007812,41.409894 139.625,41.0141343 139.625,40.5618375 C139.625,39.9964664 140.007812,39.7137809 140.5,39.7137809 C140.992188,39.7137809 141.320312,40.0530035 141.320312,40.5618375 C141.320312,41.0141343 140.992188,41.409894 140.5,41.409894 Z" id="Shape"></path>
                <path d="M169.371501,62.3286219 L157.549618,62.3286219 L157.549618,56.335689 L167.908397,56.335689 C170.19084,56.335689 171.536896,55.204947 171.536896,52.9434629 C171.536896,50.7385159 170.19084,49.5512367 167.908397,49.5512367 L157.549618,49.5512367 L157.549618,43.7279152 L168.961832,43.7279152 C171.244275,43.7279152 172.590331,42.5971731 172.590331,40.335689 C172.590331,38.1872792 171.244275,37 168.961832,37 L153.628499,37 C150.994911,37 150,37.5088339 150,40.0530035 L150,65.9469965 C150,68.4911661 150.994911,69 153.628499,69 L169.371501,69 C171.653944,69 173,67.869258 173,65.6077739 C173,63.5159011 171.653944,62.3286219 169.371501,62.3286219 Z M168.142494,52.0388693 C168.78626,52.0388693 169.07888,52.3215548 169.07888,52.8869258 C169.07888,53.2826855 168.669211,53.7349823 168.142494,53.7349823 C167.732824,53.7349823 167.264631,53.2826855 167.264631,52.8869258 C167.264631,52.434629 167.732824,52.0388693 168.142494,52.0388693 Z M164.689567,52.0388693 C165.333333,52.0388693 165.625954,52.3215548 165.625954,52.8869258 C165.625954,53.2826855 165.216285,53.7349823 164.689567,53.7349823 C164.16285,53.7349823 163.811705,53.2826855 163.811705,52.8869258 C163.811705,52.434629 164.16285,52.0388693 164.689567,52.0388693 Z M161.236641,52.0388693 C161.880407,52.0388693 162.114504,52.3215548 162.114504,52.8869258 C162.114504,53.2826855 161.763359,53.7349823 161.236641,53.7349823 C160.709924,53.7349823 160.300254,53.2826855 160.300254,52.8869258 C160.300254,52.434629 160.709924,52.0388693 161.236641,52.0388693 Z M168.78626,39.4876325 C169.430025,39.4876325 169.664122,39.770318 169.664122,40.335689 C169.664122,40.844523 169.312977,41.1837456 168.78626,41.1837456 C168.259542,41.1837456 167.908397,40.7879859 167.908397,40.335689 C167.849873,39.8268551 168.259542,39.4876325 168.78626,39.4876325 Z M165.040712,39.4876325 C165.684478,39.4876325 165.918575,39.770318 165.918575,40.335689 C165.918575,40.844523 165.56743,41.1837456 165.040712,41.1837456 C164.513995,41.1837456 164.16285,40.7879859 164.16285,40.335689 C164.16285,39.8268551 164.513995,39.4876325 165.040712,39.4876325 Z M161.295165,39.4876325 C161.880407,39.4876325 162.173028,39.770318 162.173028,40.335689 C162.173028,40.844523 161.880407,41.1837456 161.295165,41.1837456 C160.768448,41.1837456 160.358779,40.7879859 160.358779,40.335689 C160.300254,39.8268551 160.768448,39.4876325 161.295165,39.4876325 Z M153.804071,66.5123675 C153.277354,66.5123675 152.867684,66.1731449 152.867684,65.664311 C152.867684,65.0989399 153.277354,64.7597173 153.804071,64.7597173 C154.389313,64.7597173 154.681934,65.0989399 154.681934,65.664311 C154.62341,66.1731449 154.330789,66.5123675 153.804071,66.5123675 Z M153.804071,62.8939929 C153.277354,62.8939929 152.867684,62.4982332 152.867684,62.0459364 C152.867684,61.4805654 153.277354,61.1413428 153.804071,61.1413428 C154.389313,61.1413428 154.681934,61.4805654 154.681934,62.0459364 C154.62341,62.4416961 154.330789,62.8939929 153.804071,62.8939929 Z M153.804071,59.1625442 C153.277354,59.1625442 152.867684,58.7667845 152.867684,58.3144876 C152.867684,57.7491166 153.277354,57.409894 153.804071,57.409894 C154.389313,57.409894 154.681934,57.7491166 154.681934,58.3144876 C154.62341,58.7667845 154.330789,59.1625442 153.804071,59.1625442 Z M153.804071,55.5441696 C153.277354,55.5441696 152.867684,55.0918728 152.867684,54.6961131 C152.867684,54.1872792 153.277354,53.8480565 153.804071,53.8480565 C154.389313,53.8480565 154.681934,54.130742 154.681934,54.6961131 C154.62341,55.0918728 154.330789,55.5441696 153.804071,55.5441696 Z M153.804071,51.9823322 C153.277354,51.9823322 152.867684,51.5300353 152.867684,51.1342756 C152.867684,50.6254417 153.277354,50.2862191 153.804071,50.2862191 C154.389313,50.2862191 154.681934,50.5689046 154.681934,51.1342756 C154.62341,51.5300353 154.330789,51.9823322 153.804071,51.9823322 Z M153.804071,48.3639576 C153.277354,48.3639576 152.867684,47.9116608 152.867684,47.5159011 C152.867684,46.95053 153.277354,46.6678445 153.804071,46.6678445 C154.389313,46.6678445 154.681934,46.95053 154.681934,47.5159011 C154.62341,47.9116608 154.330789,48.3639576 153.804071,48.3639576 Z M153.804071,44.8021201 C153.277354,44.8021201 152.867684,44.4063604 152.867684,43.8975265 C152.867684,43.3886926 153.277354,43.04947 153.804071,43.04947 C154.389313,43.04947 154.681934,43.3321555 154.681934,43.8975265 C154.62341,44.4063604 154.330789,44.8021201 153.804071,44.8021201 Z M153.804071,41.2402827 C153.277354,41.2402827 152.867684,40.844523 152.867684,40.3922261 C152.867684,39.8268551 153.277354,39.5441696 153.804071,39.5441696 C154.389313,39.5441696 154.681934,39.8268551 154.681934,40.3922261 C154.62341,40.9010601 154.330789,41.2402827 153.804071,41.2402827 Z M157.491094,39.4876325 C158.076336,39.4876325 158.368957,39.770318 158.368957,40.335689 C158.368957,40.844523 158.076336,41.1837456 157.491094,41.1837456 C156.964377,41.1837456 156.554707,40.7879859 156.554707,40.335689 C156.554707,39.8268551 156.964377,39.4876325 157.491094,39.4876325 Z M157.608142,52.0388693 C158.193384,52.0388693 158.486005,52.3215548 158.486005,52.8869258 C158.486005,53.2826855 158.13486,53.7349823 157.608142,53.7349823 C157.081425,53.7349823 156.671756,53.2826855 156.671756,52.8869258 C156.671756,52.434629 157.081425,52.0388693 157.608142,52.0388693 Z M157.725191,66.5123675 C157.198473,66.5123675 156.788804,66.1731449 156.788804,65.664311 C156.788804,65.0989399 157.198473,64.7597173 157.725191,64.7597173 C158.310433,64.7597173 158.603053,65.0989399 158.603053,65.664311 C158.544529,66.1731449 158.193384,66.5123675 157.725191,66.5123675 Z M161.704835,66.5123675 C161.178117,66.5123675 160.768448,66.1731449 160.768448,65.664311 C160.768448,65.0989399 161.178117,64.7597173 161.704835,64.7597173 C162.290076,64.7597173 162.582697,65.0989399 162.582697,65.664311 C162.582697,66.1731449 162.231552,66.5123675 161.704835,66.5123675 Z M165.508906,66.5123675 C164.982188,66.5123675 164.572519,66.1731449 164.572519,65.664311 C164.572519,65.0989399 164.982188,64.7597173 165.508906,64.7597173 C166.094148,64.7597173 166.386768,65.0989399 166.386768,65.664311 C166.386768,66.1731449 166.035623,66.5123675 165.508906,66.5123675 Z M169.254453,66.5123675 C168.727735,66.5123675 168.318066,66.1731449 168.318066,65.664311 C168.318066,65.0989399 168.727735,64.7597173 169.254453,64.7597173 C169.839695,64.7597173 170.132316,65.0989399 170.132316,65.664311 C170.073791,66.1731449 169.78117,66.5123675 169.254453,66.5123675 Z" id="Shape"></path>
                <path d="M198.350877,36.2299652 C196.241228,36.2299652 194.701754,37.5522648 194.701754,40.6567944 L194.929825,54.9721254 L183.754386,38.4721254 C182.614035,36.804878 181.188596,36 179.649123,36 C177.368421,36 176,37.3797909 176,39.6219512 L176,64.2857143 C176,67.4477352 177.482456,68.7700348 179.649123,68.7700348 C181.758772,68.7700348 183.298246,67.4477352 183.298246,64.2857143 L183.070175,50.315331 L194.188596,66.4703833 C195.328947,68.1376307 196.754386,69 198.350877,69 C200.631579,69 202,67.6202091 202,65.3780488 L202,40.6567944 C202,37.5522648 200.403509,36.2299652 198.350877,36.2299652 Z M179.70614,65.7804878 C179.192982,65.7804878 178.79386,65.3780488 178.79386,64.8606272 C178.79386,64.2857143 179.192982,63.9982578 179.70614,63.9982578 C180.219298,63.9982578 180.561404,64.3432056 180.561404,64.8606272 C180.504386,65.3205575 180.219298,65.7804878 179.70614,65.7804878 Z M179.70614,62.1010453 C179.192982,62.1010453 178.79386,61.7560976 178.79386,61.238676 C178.79386,60.6637631 179.192982,60.3188153 179.70614,60.3188153 C180.219298,60.3188153 180.561404,60.7212544 180.561404,61.238676 C180.504386,61.7560976 180.219298,62.1010453 179.70614,62.1010453 Z M179.70614,58.5365854 C179.192982,58.5365854 178.79386,58.1341463 178.79386,57.674216 C178.79386,57.0993031 179.192982,56.7543554 179.70614,56.7543554 C180.219298,56.7543554 180.561404,57.1567944 180.561404,57.674216 C180.504386,58.1341463 180.219298,58.5365854 179.70614,58.5365854 Z M179.70614,54.9721254 C179.192982,54.9721254 178.79386,54.5696864 178.79386,54.1097561 C178.79386,53.5348432 179.192982,53.1898955 179.70614,53.1898955 C180.219298,53.1898955 180.561404,53.5923345 180.561404,54.1097561 C180.504386,54.5696864 180.219298,54.9721254 179.70614,54.9721254 Z M179.70614,51.4076655 C179.192982,51.4076655 178.79386,50.9477352 178.79386,50.5452962 C178.79386,50.0278746 179.192982,49.6829268 179.70614,49.6829268 C180.219298,49.6829268 180.561404,50.0853659 180.561404,50.5452962 C180.504386,50.9477352 180.219298,51.4076655 179.70614,51.4076655 Z M179.70614,47.8432056 C179.192982,47.8432056 178.79386,47.4407666 178.79386,46.9233449 C178.79386,46.4059233 179.192982,46.0609756 179.70614,46.0609756 C180.219298,46.0609756 180.561404,46.4059233 180.561404,46.9233449 C180.504386,47.4407666 180.219298,47.8432056 179.70614,47.8432056 Z M179.70614,44.2787456 C179.192982,44.2787456 178.79386,43.8763066 178.79386,43.358885 C178.79386,42.8414634 179.192982,42.4965157 179.70614,42.4965157 C180.219298,42.4965157 180.561404,42.8989547 180.561404,43.358885 C180.504386,43.8763066 180.219298,44.2787456 179.70614,44.2787456 Z M179.70614,40.7142857 C179.192982,40.7142857 178.79386,40.3118467 178.79386,39.8519164 C178.79386,39.2770035 179.192982,38.989547 179.70614,38.989547 C180.219298,38.989547 180.561404,39.3344948 180.561404,39.8519164 C180.504386,40.3118467 180.219298,40.7142857 179.70614,40.7142857 Z M183.127193,44.6811847 C182.614035,44.6811847 182.214912,44.2787456 182.214912,43.8188153 C182.214912,43.2439024 182.614035,42.956446 183.127193,42.956446 C183.697368,42.956446 183.982456,43.3013937 183.982456,43.8188153 C183.982456,44.2787456 183.697368,44.6811847 183.127193,44.6811847 Z M185.350877,48.3031359 C184.837719,48.3031359 184.438596,47.9006969 184.438596,47.3832753 C184.438596,46.8083624 184.837719,46.5209059 185.350877,46.5209059 C185.864035,46.5209059 186.20614,46.8658537 186.20614,47.3832753 C186.20614,47.8432056 185.864035,48.3031359 185.350877,48.3031359 Z M187.688596,51.5226481 C187.289474,51.5226481 186.833333,51.0627178 186.833333,50.6602787 C186.833333,50.0853659 187.289474,49.7979094 187.688596,49.7979094 C188.201754,49.7979094 188.54386,50.1428571 188.54386,50.6602787 C188.54386,51.0627178 188.201754,51.5226481 187.688596,51.5226481 Z M189.969298,54.8571429 C189.570175,54.8571429 189.114035,54.4547038 189.114035,53.9947735 C189.114035,53.4198606 189.513158,53.0749129 189.969298,53.0749129 C190.539474,53.0749129 190.881579,53.4773519 190.881579,53.9947735 C190.881579,54.3972125 190.539474,54.8571429 189.969298,54.8571429 Z M192.421053,58.2491289 C191.907895,58.2491289 191.565789,57.9041812 191.565789,57.3867596 C191.565789,56.8118467 191.964912,56.466899 192.421053,56.466899 C192.991228,56.466899 193.276316,56.869338 193.276316,57.3867596 C193.333333,57.9616725 192.991228,58.2491289 192.421053,58.2491289 Z M194.929825,61.7560976 C194.416667,61.7560976 194.017544,61.3536585 194.017544,60.8362369 C194.017544,60.261324 194.416667,59.9738676 194.929825,59.9738676 C195.442982,59.9738676 195.785088,60.261324 195.785088,60.8362369 C195.785088,61.3536585 195.442982,61.7560976 194.929825,61.7560976 Z M198.350877,65.7804878 C197.837719,65.7804878 197.495614,65.3780488 197.495614,64.8606272 C197.495614,64.2857143 197.894737,63.9982578 198.350877,63.9982578 C198.921053,63.9982578 199.20614,64.3432056 199.20614,64.8606272 C199.263158,65.3205575 198.921053,65.7804878 198.350877,65.7804878 Z M198.350877,62.1010453 C197.837719,62.1010453 197.495614,61.7560976 197.495614,61.238676 C197.495614,60.6637631 197.894737,60.3188153 198.350877,60.3188153 C198.921053,60.3188153 199.20614,60.7212544 199.20614,61.238676 C199.263158,61.7560976 198.921053,62.1010453 198.350877,62.1010453 Z M198.350877,58.5365854 C197.837719,58.5365854 197.495614,58.1341463 197.495614,57.674216 C197.495614,57.0993031 197.894737,56.7543554 198.350877,56.7543554 C198.921053,56.7543554 199.20614,57.1567944 199.20614,57.674216 C199.263158,58.1341463 198.921053,58.5365854 198.350877,58.5365854 Z M198.350877,54.9721254 C197.837719,54.9721254 197.495614,54.5696864 197.495614,54.1097561 C197.495614,53.5348432 197.894737,53.1898955 198.350877,53.1898955 C198.921053,53.1898955 199.20614,53.5923345 199.20614,54.1097561 C199.263158,54.5696864 198.921053,54.9721254 198.350877,54.9721254 Z M198.350877,51.4076655 C197.837719,51.4076655 197.495614,50.9477352 197.495614,50.5452962 C197.495614,50.0278746 197.894737,49.6829268 198.350877,49.6829268 C198.921053,49.6829268 199.20614,50.0853659 199.20614,50.5452962 C199.263158,50.9477352 198.921053,51.4076655 198.350877,51.4076655 Z M198.350877,47.8432056 C197.837719,47.8432056 197.495614,47.4407666 197.495614,46.9233449 C197.495614,46.4059233 197.894737,46.0609756 198.350877,46.0609756 C198.921053,46.0609756 199.20614,46.4059233 199.20614,46.9233449 C199.263158,47.4407666 198.921053,47.8432056 198.350877,47.8432056 Z M198.350877,44.2787456 C197.837719,44.2787456 197.495614,43.8763066 197.495614,43.358885 C197.495614,42.8414634 197.894737,42.4965157 198.350877,42.4965157 C198.921053,42.4965157 199.20614,42.8989547 199.20614,43.358885 C199.263158,43.8763066 198.921053,44.2787456 198.350877,44.2787456 Z M198.350877,40.7142857 C197.837719,40.7142857 197.495614,40.3118467 197.495614,39.8519164 C197.495614,39.2770035 197.894737,38.989547 198.350877,38.989547 C198.921053,38.989547 199.20614,39.3344948 199.20614,39.8519164 C199.263158,40.3118467 198.921053,40.7142857 198.350877,40.7142857 Z" id="Shape"></path>
                <path d="M222.964912,43.2121212 C224.504386,43.2121212 225.872807,43.6127946 227.013158,44.2996633 C228.153509,44.986532 229.179825,45.3872054 230.035088,45.3299663 C231.745614,45.2727273 233,43.4410774 233,41.5521886 C232.942982,40.006734 231.916667,38.6902357 229.921053,37.6599327 C227.925439,36.5151515 225.587719,36 222.907895,36 C218.232456,36 214.469298,37.6026936 211.447368,40.8080808 C208.482456,43.956229 207,48.0774411 207,53.0572391 C207,57.9225589 208.482456,61.986532 211.447368,65.1919192 C214.469298,68.3973064 218.289474,70 222.907895,70 C225.587719,70 227.925439,69.4276094 229.921053,68.3400673 C231.916667,67.1952862 232.942982,65.8787879 233,64.3333333 C233,62.4444444 231.745614,60.6700337 230.035088,60.6127946 C229.179825,60.5555556 228.153509,60.956229 227.013158,61.6430976 C225.872807,62.3299663 224.504386,62.7306397 222.964912,62.7306397 C220.399123,62.7306397 218.346491,61.8720539 216.807018,60.040404 C215.267544,58.2087542 214.526316,55.9191919 214.526316,53.1144781 C214.526316,50.1952862 215.267544,47.8484848 216.807018,46.016835 C218.346491,44.1279461 220.399123,43.2121212 222.964912,43.2121212 Z M229.407895,40.8080808 C229.921053,40.8080808 230.320175,41.1515152 230.320175,41.6666667 C230.320175,42.1818182 229.921053,42.5824916 229.407895,42.5824916 C228.894737,42.5824916 228.552632,42.1818182 228.552632,41.6666667 C228.552632,41.0942761 228.894737,40.8080808 229.407895,40.8080808 Z M226.557018,39.03367 C227.070175,39.03367 227.412281,39.4343434 227.412281,39.8922559 C227.412281,40.4074074 227.013158,40.8080808 226.557018,40.8080808 C225.986842,40.8080808 225.644737,40.4074074 225.644737,39.8922559 C225.587719,39.3771044 225.986842,39.03367 226.557018,39.03367 Z M223.192982,38.3468013 C223.592105,38.3468013 224.048246,38.7474747 224.048246,39.2053872 C224.048246,39.6060606 223.649123,40.0639731 223.192982,40.0639731 C222.622807,40.0639731 222.280702,39.6060606 222.280702,39.2053872 C222.280702,38.7474747 222.622807,38.3468013 223.192982,38.3468013 Z M219.77193,38.7474747 C220.285088,38.7474747 220.684211,39.1481481 220.684211,39.6060606 C220.684211,40.1784512 220.285088,40.5218855 219.77193,40.5218855 C219.258772,40.5218855 218.916667,40.1212121 218.916667,39.6060606 C218.916667,39.1481481 219.258772,38.7474747 219.77193,38.7474747 Z M211.960526,45.2154882 C212.359649,45.2154882 212.815789,45.6161616 212.815789,46.0740741 C212.815789,46.6464646 212.359649,46.9326599 211.960526,46.9326599 C211.447368,46.9326599 211.105263,46.5892256 211.105263,46.0740741 C211.105263,45.6161616 211.447368,45.2154882 211.960526,45.2154882 Z M210.934211,48.6498316 C211.447368,48.6498316 211.846491,49.0505051 211.846491,49.5084175 C211.846491,50.0808081 211.447368,50.4242424 210.934211,50.4242424 C210.364035,50.4242424 210.078947,50.023569 210.078947,49.5084175 C210.02193,48.993266 210.364035,48.6498316 210.934211,48.6498316 Z M209.736842,53 C209.736842,52.5993266 210.02193,52.1414141 210.592105,52.1414141 C211.105263,52.1414141 211.504386,52.5420875 211.504386,53 C211.504386,53.5723906 211.105263,53.9158249 210.592105,53.9158249 C210.02193,53.973064 209.736842,53.5723906 209.736842,53 Z M210.135965,56.5488215 C210.135965,56.1481481 210.535088,55.6902357 211.048246,55.6902357 C211.561404,55.6902357 211.903509,56.1481481 211.903509,56.5488215 C211.903509,57.0639731 211.504386,57.4074074 211.048246,57.4074074 C210.47807,57.4646465 210.135965,57.0639731 210.135965,56.5488215 Z M212.074561,60.8417508 C211.675439,60.8417508 211.219298,60.4983165 211.219298,59.983165 C211.219298,59.4680135 211.618421,59.0673401 212.074561,59.0673401 C212.587719,59.0673401 212.986842,59.4680135 212.986842,59.983165 C212.986842,60.4983165 212.587719,60.8417508 212.074561,60.8417508 Z M229.52193,63.4175084 C230.035088,63.4175084 230.434211,63.8181818 230.434211,64.2760943 C230.434211,64.7912458 230.035088,65.1919192 229.52193,65.1919192 C229.008772,65.1919192 228.666667,64.7912458 228.666667,64.2760943 C228.666667,63.8181818 229.008772,63.4175084 229.52193,63.4175084 Z M226.557018,65.1346801 C227.070175,65.1346801 227.412281,65.5353535 227.412281,66.0505051 C227.412281,66.4511785 227.013158,66.9090909 226.557018,66.9090909 C225.986842,66.9090909 225.644737,66.4511785 225.644737,66.0505051 C225.644737,65.5353535 226.04386,65.1346801 226.557018,65.1346801 Z M223.192982,65.7643098 C223.70614,65.7643098 224.048246,66.0505051 224.048246,66.6228956 C224.048246,67.1380471 223.649123,67.5387205 223.192982,67.5387205 C222.736842,67.5387205 222.337719,67.1380471 222.337719,66.6228956 C222.280702,66.0505051 222.679825,65.7643098 223.192982,65.7643098 Z M219.828947,65.3636364 C220.342105,65.3636364 220.741228,65.8215488 220.741228,66.2222222 C220.741228,66.7946128 220.342105,67.1380471 219.828947,67.1380471 C219.315789,67.1380471 218.973684,66.7373737 218.973684,66.2222222 C219.030702,65.8215488 219.315789,65.3636364 219.828947,65.3636364 Z M216.75,64.1616162 C217.263158,64.1616162 217.605263,64.5050505 217.605263,65.020202 C217.605263,65.5925926 217.20614,65.9360269 216.75,65.9360269 C216.179825,65.9360269 215.837719,65.5353535 215.837719,65.020202 C215.837719,64.5050505 216.236842,64.1616162 216.75,64.1616162 Z M214.982456,62.7878788 C214.982456,63.3602694 214.583333,63.7037037 214.070175,63.7037037 C213.557018,63.7037037 213.214912,63.3030303 213.214912,62.7878788 C213.214912,62.2727273 213.557018,61.9292929 214.070175,61.9292929 C214.583333,61.986532 214.982456,62.2727273 214.982456,62.7878788 Z M213.899123,44.1279461 C213.5,44.1279461 213.04386,43.7272727 213.04386,43.2693603 C213.04386,42.8114478 213.442982,42.4107744 213.899123,42.4107744 C214.412281,42.4107744 214.811404,42.8114478 214.811404,43.2693603 C214.811404,43.7272727 214.412281,44.1279461 213.899123,44.1279461 Z M215.723684,40.9225589 C215.723684,40.5218855 216.065789,40.0639731 216.578947,40.0639731 C217.092105,40.0639731 217.491228,40.5218855 217.491228,40.9225589 C217.491228,41.4949495 217.092105,41.7811448 216.578947,41.7811448 C216.008772,41.8383838 215.723684,41.4949495 215.723684,40.9225589 Z" id="Shape"></path>
                <path d="M256.371501,62.3286219 L244.549618,62.3286219 L244.549618,56.335689 L254.908397,56.335689 C257.19084,56.335689 258.536896,55.204947 258.536896,52.9434629 C258.536896,50.7385159 257.19084,49.5512367 254.908397,49.5512367 L244.549618,49.5512367 L244.549618,43.7279152 L255.961832,43.7279152 C258.244275,43.7279152 259.590331,42.5971731 259.590331,40.335689 C259.590331,38.1872792 258.244275,37 255.961832,37 L240.628499,37 C237.994911,37 237,37.5088339 237,40.0530035 L237,65.9469965 C237,68.4911661 237.994911,69 240.628499,69 L256.371501,69 C258.653944,69 260,67.869258 260,65.6077739 C260,63.5159011 258.653944,62.3286219 256.371501,62.3286219 Z M255.142494,52.0388693 C255.78626,52.0388693 256.07888,52.3215548 256.07888,52.8869258 C256.07888,53.2826855 255.669211,53.7349823 255.142494,53.7349823 C254.732824,53.7349823 254.264631,53.2826855 254.264631,52.8869258 C254.264631,52.434629 254.6743,52.0388693 255.142494,52.0388693 Z M251.689567,52.0388693 C252.333333,52.0388693 252.625954,52.3215548 252.625954,52.8869258 C252.625954,53.2826855 252.216285,53.7349823 251.689567,53.7349823 C251.16285,53.7349823 250.811705,53.2826855 250.811705,52.8869258 C250.811705,52.434629 251.16285,52.0388693 251.689567,52.0388693 Z M248.236641,52.0388693 C248.880407,52.0388693 249.114504,52.3215548 249.114504,52.8869258 C249.114504,53.2826855 248.763359,53.7349823 248.236641,53.7349823 C247.709924,53.7349823 247.300254,53.2826855 247.300254,52.8869258 C247.24173,52.434629 247.709924,52.0388693 248.236641,52.0388693 Z M255.727735,39.4876325 C256.371501,39.4876325 256.605598,39.770318 256.605598,40.335689 C256.605598,40.844523 256.254453,41.1837456 255.727735,41.1837456 C255.201018,41.1837456 254.849873,40.7879859 254.849873,40.335689 C254.849873,39.8268551 255.201018,39.4876325 255.727735,39.4876325 Z M252.040712,39.4876325 C252.684478,39.4876325 252.918575,39.770318 252.918575,40.335689 C252.918575,40.844523 252.56743,41.1837456 252.040712,41.1837456 C251.513995,41.1837456 251.16285,40.7879859 251.16285,40.335689 C251.104326,39.8268551 251.513995,39.4876325 252.040712,39.4876325 Z M248.236641,39.4876325 C248.821883,39.4876325 249.114504,39.770318 249.114504,40.335689 C249.114504,40.844523 248.821883,41.1837456 248.236641,41.1837456 C247.709924,41.1837456 247.300254,40.7879859 247.300254,40.335689 C247.300254,39.8268551 247.709924,39.4876325 248.236641,39.4876325 Z M240.745547,66.5123675 C240.21883,66.5123675 239.80916,66.1731449 239.80916,65.664311 C239.80916,65.0989399 240.21883,64.7597173 240.745547,64.7597173 C241.330789,64.7597173 241.62341,65.0989399 241.62341,65.664311 C241.62341,66.1731449 241.272265,66.5123675 240.745547,66.5123675 Z M240.745547,62.8939929 C240.21883,62.8939929 239.80916,62.4982332 239.80916,62.0459364 C239.80916,61.4805654 240.21883,61.1413428 240.745547,61.1413428 C241.330789,61.1413428 241.62341,61.4805654 241.62341,62.0459364 C241.62341,62.4416961 241.272265,62.8939929 240.745547,62.8939929 Z M240.745547,59.1625442 C240.21883,59.1625442 239.80916,58.7667845 239.80916,58.3144876 C239.80916,57.7491166 240.21883,57.409894 240.745547,57.409894 C241.330789,57.409894 241.62341,57.7491166 241.62341,58.3144876 C241.62341,58.7667845 241.272265,59.1625442 240.745547,59.1625442 Z M240.745547,55.5441696 C240.21883,55.5441696 239.80916,55.0918728 239.80916,54.6961131 C239.80916,54.1872792 240.21883,53.8480565 240.745547,53.8480565 C241.330789,53.8480565 241.62341,54.130742 241.62341,54.6961131 C241.62341,55.0918728 241.272265,55.5441696 240.745547,55.5441696 Z M240.745547,51.9823322 C240.21883,51.9823322 239.80916,51.5300353 239.80916,51.1342756 C239.80916,50.6254417 240.21883,50.2862191 240.745547,50.2862191 C241.330789,50.2862191 241.62341,50.5689046 241.62341,51.1342756 C241.62341,51.5300353 241.272265,51.9823322 240.745547,51.9823322 Z M240.745547,48.3639576 C240.21883,48.3639576 239.80916,47.9116608 239.80916,47.5159011 C239.80916,46.95053 240.21883,46.6678445 240.745547,46.6678445 C241.330789,46.6678445 241.62341,46.95053 241.62341,47.5159011 C241.62341,47.9116608 241.272265,48.3639576 240.745547,48.3639576 Z M240.745547,44.8021201 C240.21883,44.8021201 239.80916,44.4063604 239.80916,43.8975265 C239.80916,43.3886926 240.21883,43.04947 240.745547,43.04947 C241.330789,43.04947 241.62341,43.3321555 241.62341,43.8975265 C241.62341,44.4063604 241.272265,44.8021201 240.745547,44.8021201 Z M240.745547,41.2402827 C240.21883,41.2402827 239.80916,40.844523 239.80916,40.3922261 C239.80916,39.8268551 240.21883,39.5441696 240.745547,39.5441696 C241.330789,39.5441696 241.62341,39.8268551 241.62341,40.3922261 C241.62341,40.9010601 241.272265,41.2402827 240.745547,41.2402827 Z M244.491094,39.4876325 C245.076336,39.4876325 245.368957,39.770318 245.368957,40.335689 C245.368957,40.844523 245.076336,41.1837456 244.491094,41.1837456 C243.964377,41.1837456 243.554707,40.7879859 243.554707,40.335689 C243.554707,39.8268551 243.964377,39.4876325 244.491094,39.4876325 Z M244.608142,52.0388693 C245.193384,52.0388693 245.486005,52.3215548 245.486005,52.8869258 C245.486005,53.2826855 245.13486,53.7349823 244.608142,53.7349823 C244.081425,53.7349823 243.671756,53.2826855 243.671756,52.8869258 C243.613232,52.434629 244.081425,52.0388693 244.608142,52.0388693 Z M244.666667,66.5123675 C244.139949,66.5123675 243.73028,66.1731449 243.73028,65.664311 C243.73028,65.0989399 244.139949,64.7597173 244.666667,64.7597173 C245.251908,64.7597173 245.544529,65.0989399 245.544529,65.664311 C245.544529,66.1731449 245.193384,66.5123675 244.666667,66.5123675 Z M248.704835,66.5123675 C248.178117,66.5123675 247.768448,66.1731449 247.768448,65.664311 C247.768448,65.0989399 248.178117,64.7597173 248.704835,64.7597173 C249.290076,64.7597173 249.582697,65.0989399 249.582697,65.664311 C249.524173,66.1731449 249.231552,66.5123675 248.704835,66.5123675 Z M252.508906,66.5123675 C251.982188,66.5123675 251.572519,66.1731449 251.572519,65.664311 C251.572519,65.0989399 251.982188,64.7597173 252.508906,64.7597173 C253.094148,64.7597173 253.386768,65.0989399 253.386768,65.664311 C253.386768,66.1731449 253.035623,66.5123675 252.508906,66.5123675 Z M256.254453,66.5123675 C255.727735,66.5123675 255.318066,66.1731449 255.318066,65.664311 C255.318066,65.0989399 255.727735,64.7597173 256.254453,64.7597173 C256.839695,64.7597173 257.132316,65.0989399 257.132316,65.664311 C257.073791,66.1731449 256.78117,66.5123675 256.254453,66.5123675 Z" id="Shape"></path>
            </g>
        </g>
    </g>
</svg>